<mxfile host="app.diagrams.net" agent="Mozilla/5.0 (Windows NT 10.0; Win64; x64) AppleWebKit/537.36 (KHTML, like Gecko) Chrome/134.0.0.0 Safari/537.36" version="26.2.3">
  <diagram name="Página-1" id="QYA5CxdgEJGF6k_z-Vw2">
    <mxGraphModel dx="1183" dy="1353" grid="0" gridSize="10" guides="1" tooltips="1" connect="1" arrows="1" fold="1" page="0" pageScale="1" pageWidth="827" pageHeight="1169" background="#ffffff" math="0" shadow="0">
      <root>
        <mxCell id="0" />
        <mxCell id="1" parent="0" />
        <mxCell id="CzqZt7TXCMdeZpQBuqKh-14" value="package" style="shape=folder;fontStyle=1;spacingTop=10;tabWidth=40;tabHeight=14;tabPosition=left;html=1;whiteSpace=wrap;" vertex="1" parent="1">
          <mxGeometry x="91" y="-208" width="254" height="204.5" as="geometry" />
        </mxCell>
        <mxCell id="CzqZt7TXCMdeZpQBuqKh-12" value="&lt;p style=&quot;margin:0px;margin-top:4px;text-align:center;&quot;&gt;&lt;i&gt;Conta&lt;/i&gt;&lt;/p&gt;&lt;hr&gt;" style="verticalAlign=top;align=left;overflow=fill;html=1;whiteSpace=wrap;" vertex="1" parent="1">
          <mxGeometry x="123" y="-161" width="190" height="114" as="geometry" />
        </mxCell>
        <mxCell id="CzqZt7TXCMdeZpQBuqKh-13" value="&lt;span style=&quot;font-size: 12px;&quot;&gt;&lt;span style=&quot;white-space: pre;&quot;&gt;&#x9;&lt;/span&gt;numero&lt;/span&gt;&lt;div&gt;&lt;span style=&quot;font-size: 12px;&quot;&gt;&lt;span style=&quot;white-space: pre;&quot;&gt;&#x9;&lt;/span&gt;titular&lt;/span&gt;&lt;/div&gt;&lt;div&gt;&lt;span style=&quot;font-size: 12px;&quot;&gt;&lt;span style=&quot;white-space: pre;&quot;&gt;&#x9;&lt;/span&gt;saldo&lt;/span&gt;&lt;/div&gt;&lt;div&gt;&lt;span style=&quot;font-size: 12px;&quot;&gt;&lt;span style=&quot;white-space: pre;&quot;&gt;&#x9;&lt;/span&gt;limite&lt;/span&gt;&lt;/div&gt;" style="text;strokeColor=none;fillColor=none;html=1;align=left;verticalAlign=middle;whiteSpace=wrap;rounded=0;fontSize=16;" vertex="1" parent="1">
          <mxGeometry x="123" y="-135" width="189" height="87" as="geometry" />
        </mxCell>
        <mxCell id="CzqZt7TXCMdeZpQBuqKh-15" value="&lt;span style=&quot;font-size: 12px;&quot;&gt;Conta&lt;/span&gt;" style="text;strokeColor=none;fillColor=none;html=1;align=center;verticalAlign=middle;whiteSpace=wrap;rounded=0;fontSize=16;" vertex="1" parent="1">
          <mxGeometry x="188" y="-194" width="60" height="30" as="geometry" />
        </mxCell>
        <mxCell id="CzqZt7TXCMdeZpQBuqKh-49" value="&lt;span style=&quot;font-size: 12px;&quot;&gt;Atributos&lt;/span&gt;" style="text;strokeColor=none;fillColor=none;html=1;align=center;verticalAlign=middle;whiteSpace=wrap;rounded=0;fontSize=16;" vertex="1" parent="1">
          <mxGeometry x="313" y="-244.12" width="60" height="30" as="geometry" />
        </mxCell>
        <mxCell id="CzqZt7TXCMdeZpQBuqKh-79" value="" style="shape=stencil(tVrLchw3DPyavbIIgs+zH//hKsvRVhTJJctO8vcBs8XZZXOnp3TwbUU1ZkAQjwY4J/3w4/HL94dT8D/eXl/+fPj7/PXt8aQfTyGcnx8fXs9v9uukn0764dvL68Mfry8/n79e/v7+pSP7r79efvUn/HOR8y6WLhT8v5eF1pzG/1c+X/BP5+cbvLogM766lvfxyeWI+ETw1UlDvCf6iHcVXlBcFCKgLtVZILuciEB2CgLJlUoEmvMgEF0lKtkhtEXAkzfYKQgI2LkQK9kxpDALBKdMpeIaCIgLjfiFdwFUshVPBILL8xuq2S0QATPi7Bq1uEJcSYvzeRbILrI3NCegUnKeWCkKnnQ171IiEFxNs4C4Rswao4uwae+UCaQRjkOgVFeIe8cyHGETMLsxgYopoyTqS7ENq28CZiXiGsmjexdxmSUZ74pOArlR10jiBASKq8Q1TEBBINGY7gLzprMeqQS+lA83DQGUmkv8HNqcKlM5Ojg/e2tKNC+ZL7XZW1OgZo3ZFdiD53tILsznYO4ohQiYq817sEdU4nwW03k+B3sEizjLGnmOh2j5nASQ5aU0R5zWEeX3BRIWXc08VW5W3wSUVl3dksomICMX7taHedNWuQsTsAo0vyFYXSUqdaYBb4gjn98XsADys4BQ55M6IngIyHaUe0ygzLlVytjVfYHo2uytYnyIkxPIGrZSSEERQerQV9gePCYBW1ESD/bvAEWR1hNLMlBORubcezzkGHNtjs8Qz4MA7hkISoNy8qa4XYsl4nV2oFCrghNmTvMYsP8op3vcMMz73cjiXthAOffU48zc2QNeWWqx2pwBL6xfiCNTXfGMz1sq9AXxLF2H4b03eMbAMqZ3P6jALlNAewZif6uQCfWPrIo3LJmeVv0cnaI/VKJPXpqRbUN38UbNgPibfxL7l4oVXGh6MIKskNap/Y3jZ8QzgmBtyoJn8WudFuQrpXzC2uMYAc/aTcNnzD+R+L/hq0c8KTGGh/PS4YC7eKj0tObdw5cDPNqncjxSFUqeuj3n/BNpi9bPqyCe2z+8E+/be/SpSAl0GGwPXxFfmX3qKG8358X83/CLP/Dn1wJ4xiy7fRZ/JvnK8IL6R5If+rgK9TmIx7Tg+fPLEu8H/oz6J+4/DfXJdN7lV4OWgxdkwDPC1DeACrUDA80BHGnB7gcQEc/10d+Kj64s9mQBIMN/bxyCFbyy4j1J6FYgYQIaaGNVtnnqFc8GuFbgIeD5BCpXdFAZBtsjKGEhuAcEyAM+EHsawYpIaNi4qs9VZn08LUidICrgWQdmBDQsBI7gO8FFPOshNSKBO3i+xwLG9bcGoKA+jTUMy/xchsPuNTAZ/SGxcfvSAARaUK0Bq9iAJdbgRRzyboOG+/iATX8cCu42nDM+0XwogvGe6ZhDBBvm4gLHQz6sfAQRRv90MyBgoyDrmCHAhLcAdgJQsoVzXFlm2rbCZkfWZAMJshXW1UpDlmUrbOh3dcqbYRNza/OaAG7KBxG9MYc3ZH4pVJGp2wqrTLp1dlskeMotVfGuzVYCy10Za4EmfmVTcVprK6waxGXy31fISVu6LjA/4g1fjDhmj2mMTPYKCMzw+licT82hBUp+NPl7c3mZDy6FMdXYuyoAUp0iv7UVTMKpjLnYngBmvUadzzQO86b7dQd7Qxg0YhM4uFAJ2Pn1KxvCjLpKIFDobMU2XUGlRgOoXwrNB1eEJoF+GzJbyegbGw+Za0AAlUTv2mLFZFwKHXCZt0L/URqf0G0KbAXI05GDBSQk4xpomrGYhhmjkWg29IkeS1blBUULTjVqprdIPc/BHvg9lWVSuCStPIB04bXN086x1/3ZNRqv01ZvIERb4CVLsXVsyi+FlmGddWNsmiBLN9743bPk5dOKTH2p08PlexLGb1d+ZQIst1bsL1qliS+jc/cRCfNV7K97x0024LH6XEd+O3gYwN2MJHYE4Lrz8AWaFzwJHY9XwteZ6A5elg2zbLHcUPWRB9UfEmTHEx+9h2cdnkeC3hqlnh7ZQp+JkjDevtu5xVN76qKP0vN63ydnx3j7cf2+7dv56enyedzt//F7OFu6fEunn/4D);lineShape=1;strokeColor=light-dark(transparent,#FF0000);" vertex="1" parent="1">
          <mxGeometry x="219.863693083185" y="-235.33385905088892" width="72.78623269326175" height="140.80537626699197" as="geometry" />
        </mxCell>
        <mxCell id="CzqZt7TXCMdeZpQBuqKh-80" value="" style="shape=stencil(7VnLchs5DPwaXVkkQBLkOZv8R6rixKo4dspxXn8fMCpOBFDqWe1pa2tvsjzQEEB348EDv/py//bz3YHil5fnp49334/vXu4P/NeB6Ph4f/d8fNFPB3594Ffvn57vPjw/fX18d/r789vx5Pj06enb+IUfJ7uUA5dhRfHn6RsOiX5/8eb0/MPx0T4f2TyfYkgFG5A1qCHuGNgTUQqVoUFK1qCG3rFBtT7TjMI1A7JOs4SCo8TNGOQUpEIDsU5nmV5dNighWh8KhYwN2Oah1JBRWEso1unSQxT8BnukGkOM0OmWvUFrGBo201WhgcJKoTsDCoTeoL9H3kBQpmOg6A06wFILwrc8L4EXD9CB6hIi7HEOnW4Jqaag35IzDkVuAQUHtr+/gzry5y88M3LleUcDJRqjBIdqMcod5ist2lKhv6qeVikUIRnEc4ve9jxNRb52fvv7Kr8V4kdsvpRDCbM+24QpJTiDBCjrXUFIoQC55uyFSN9JwOWcQ7U+jKgBTJc4XdwMGKpvKZ7FGjcGUVJSFZe2HhrwocpEwYYjnl5d1gme8n9eo0BYpXvkjRoFEtdyyI46JVQkdRtzN4MOa1SnWbfPyBzBkXr1pV+LWgFR6kouJ9cRwzsuhBupAQTSMzVrIApg5IQKlpUYkQmva4lga9AIdkiaarKipD8hCExL09YqPFLNPko9wj6yiG94epq1+jKpVXbdGxTxwAdFszdQ5QFwVYI1C9cBL1QaxLeFCuCC2pHuwzoQj7QyeunrWAWG3C9Oo3Ku1cMxqBcoTH/KzWYgkKN6JIdWJSGi3CiJ7g0qVaiPbLMZPzNAaB0l0Nes/VY1+VfAVpV9n6QGjDtPIR+mghqN6OtoF9g5qIGrQYpvQnNS9Eqm2IjIIPnC2zchuRqlBd8JTwCyUA5OAHUhBOHRTStE8QZIK0dvId4HBlEahFg4ykD6BuUWjqLRbZDaQaPONvaqbCykbuhIiiXbPChaGwprv8AHqJXL4NN3Gu8tJucG6A23GnCcB9iqYofSx81Pk01goc7VTw9adxHjdOh340nDel/Z7w1agmgVCtkaSINOtzjbzrP+J6M2UZtpm2lJcCRrWj/cDIqVr8mFoRutY9rSCmi/gqas4bRrRBl3WCq9Fho6hKA5XWPiEqdgQQSqxScu09Tzy1jqfmmlo24CmVYXHYG4zGnzMrzFR4lpt4ez8NaxqQBd0mFbLDR0MGtouNz2cptBhmOTTobk3pCmPF/do1m51xJTkQEtwyXBeXcYuAWo7DUn4pYaBa/Fsl/tKTRQyRoTunVa0dqwGNdlnynoSP+vJ6eQobL7L1xPLg78l9eTPKn+N7fua+HBa/28LHHwvUGeM8X50gfGUyx+dm4+sl8f7lytLHPVzt1N9vHZuRzKnmE7t095VouzbSa63sq+D8bXZ9kPeQTXhmXW3+00EPzFz2sJdmrLFLxtG65Q3UlDhKNa85naUdvor/12nk9e2fBxVGvdlg17m9jPUDiYo6Y65GDtz4Ec8iEU/sFF7c7z+uHPrfD748PD6VL5/P/+Flm/Ot1A8+tf);lineShape=1;strokeColor=light-dark(transparent,#FF0000);" vertex="1" parent="1">
          <mxGeometry x="292.36283915000706" y="-239.83522966486885" width="13.777384390674666" height="21.42185634229558" as="geometry" />
        </mxCell>
        <mxCell id="CzqZt7TXCMdeZpQBuqKh-81" value="Aqui foi definido o que é uma &lt;b&gt;&lt;i&gt;C&lt;/i&gt;&lt;/b&gt;&lt;i&gt;&lt;b&gt;onta&lt;/b&gt;&lt;/i&gt;, e o que uma conta deve ter.&lt;div&gt;Isso que define o que cada &lt;b&gt;&lt;i&gt;C&lt;/i&gt;&lt;/b&gt;&lt;i&gt;&lt;b&gt;onta&lt;/b&gt;&lt;/i&gt; vai ter, é chamado de atributos/propriedades.&lt;/div&gt;" style="text;html=1;align=center;verticalAlign=middle;resizable=0;points=[];autosize=1;strokeColor=none;fillColor=none;" vertex="1" parent="1">
          <mxGeometry x="30" y="-348" width="444" height="41" as="geometry" />
        </mxCell>
        <mxCell id="CzqZt7TXCMdeZpQBuqKh-82" value="Quando a variável &lt;code data-end=&quot;28&quot; data-start=&quot;18&quot;&gt;umaConta&lt;/code&gt; é criada, um espaço de memória é reservado para armazenar a referência a um objeto.&lt;div&gt;Esse objeto é instanciado a partir de uma classe, e seu construtor é chamado para inicializar seus atributos.&lt;/div&gt;" style="text;html=1;align=center;verticalAlign=middle;resizable=0;points=[];autosize=1;strokeColor=none;fillColor=none;" vertex="1" parent="1">
          <mxGeometry x="-102.5" y="33" width="640" height="41" as="geometry" />
        </mxCell>
      </root>
    </mxGraphModel>
  </diagram>
</mxfile>
